<svg xmlns="http://www.w3.org/2000/svg" viewBox="0 0 454 511.82">
  <defs>
    <style>
      .prefix__b {
        fill: #e0ddd5
      }
    </style>
  </defs>
  <path
    d="M454 355.16v-198.5a58 58 0 00-28.74-50.07l-169-98.68a58 58 0 00-58.46 0l-169 98.68A58 58 0 000 156.66v198.5a58 58 0 0028.74 50.07l169 98.68a58 58 0 0058.46 0l169-98.68a58 58 0 0028.8-50.07z"
    fill="#c6934b" />
  <path class="prefix__b"
    d="M103.16 179.85v162.88h30.39V179.85zm26.78 94.73c0 3.58-2.57 6.49-5.74 6.49h-11.69c-3.17 0-5.75-2.91-5.75-6.49v-38.21c0-3.59 2.58-6.49 5.75-6.49h11.69c3.17 0 5.74 2.9 5.74 6.49zm0-65.06h-23.18v-9.31h23.18zM174.85 180.44v162.89h30.39V180.44zm26.78 94.73c0 3.59-2.57 6.49-5.74 6.49H184.2c-3.17 0-5.75-2.9-5.75-6.49V237c0-3.58 2.58-6.49 5.75-6.49h11.69c3.17 0 5.74 2.91 5.74 6.49zm0-65.06h-23.18v-9.31h23.18zM247.79 180.44v162.89h30.39V180.44zm26.78 94.73c0 3.59-2.57 6.49-5.75 6.49h-11.68c-3.18 0-5.75-2.9-5.75-6.49V237c0-3.58 2.57-6.49 5.75-6.49h11.68c3.18 0 5.75 2.91 5.75 6.49zm0-65.06h-23.18v-9.31h23.18zM322.24 180.44v162.89h30.39V180.44zM349 275.17c0 3.59-2.58 6.49-5.75 6.49H331.6c-3.18 0-5.75-2.9-5.75-6.49V237c0-3.58 2.57-6.49 5.75-6.49h11.68c3.17 0 5.75 2.91 5.75 6.49zm0-65.06h-23.15v-9.31H349zM378.44 365.78H74.54l7.6-16.9h290.23l6.07 16.9zM398.96 393.44H54.03l8.62-16.9h329.41l6.9 16.9zM226.49 80L59.35 173.7h334.29zm0 70.68a21.51 21.51 0 1121.28-21.51 21.39 21.39 0 01-21.28 21.48z" />
</svg>